<svg width="16" height="16" viewBox="0 0 16 16" fill="none" xmlns="http://www.w3.org/2000/svg">
<path fill-rule="evenodd" clip-rule="evenodd" d="M8 11C9.44808 11.0018 10.8425 10.4523 11.9 9.463L13.66 10.123C14.3473 10.381 14.9395 10.8425 15.3576 11.4459C15.7757 12.0493 15.9998 12.7659 16 13.5V15C16 15.2652 15.8946 15.5196 15.7071 15.7071C15.5196 15.8946 15.2652 16 15 16H1C0.734784 16 0.48043 15.8946 0.292893 15.7071C0.105357 15.5196 0 15.2652 0 15V13.5C0 11.996 0.933 10.65 2.34 10.122L4.1 9.462C5.15731 10.4517 6.55179 11.0016 8 11ZM7.804 1.99831e-09H8.196C8.68007 -4.83557e-06 9.15888 0.100404 9.60217 0.294881C10.0455 0.489358 10.4436 0.773674 10.7714 1.12986C11.0992 1.48605 11.3495 1.90636 11.5066 2.36424C11.6637 2.82211 11.7241 3.30759 11.684 3.79L11.52 5.761C11.447 6.64438 11.0445 7.46801 10.3924 8.06841C9.74037 8.66882 8.88639 9.0021 8 9.0021C7.11361 9.0021 6.25963 8.66882 5.60756 8.06841C4.95549 7.46801 4.553 6.64438 4.48 5.761L4.316 3.791C4.27575 3.30851 4.33603 2.82292 4.49305 2.36493C4.65007 1.90693 4.9004 1.4865 5.22822 1.1302C5.55604 0.773902 5.95422 0.489494 6.39758 0.294957C6.84094 0.100419 7.31984 -1.63578e-05 7.804 1.99831e-09V1.99831e-09Z" fill="#A3ACB9"/>
</svg>
