<svg width="10" height="11" viewBox="0 0 10 11" fill="none" xmlns="http://www.w3.org/2000/svg">
<path d="M6.25078 7.12495V1.528C6.25078 1.39791 6.22508 1.26911 6.17515 1.14899C6.12522 1.02886 6.05204 0.919792 5.95983 0.828038C5.86761 0.736283 5.75817 0.663655 5.6378 0.614326C5.51743 0.564997 5.3885 0.53994 5.25842 0.540593C4.71063 0.540593 4.26605 0.99212 4.26605 1.528V7.11106L2.45398 5.299C2.362 5.20633 2.25262 5.13275 2.13211 5.08248C2.01161 5.0322 1.88237 5.00623 1.7518 5.00604C1.62123 5.00586 1.49191 5.03147 1.37127 5.0814C1.25063 5.13134 1.14104 5.20461 1.04879 5.29701C0.955787 5.38892 0.881983 5.4984 0.831673 5.61909C0.781363 5.73978 0.75555 5.86927 0.755734 6.00002C0.755919 6.13078 0.782098 6.26019 0.832749 6.38074C0.8834 6.50129 0.957512 6.61056 1.05078 6.7022L4.55483 10.2063C4.75131 10.4037 5.00933 10.501 5.26536 10.5C5.39755 10.5009 5.52858 10.4754 5.65077 10.4249C5.77295 10.3745 5.88383 10.3001 5.97689 10.2063L9.48094 6.7022C9.87789 6.30526 9.87094 5.68404 9.48293 5.29701C9.39068 5.20461 9.28109 5.13134 9.16045 5.0814C9.0398 5.03147 8.91048 5.00586 8.77992 5.00604C8.64935 5.00623 8.5201 5.0322 8.3996 5.08248C8.2791 5.13275 8.16972 5.20633 8.07773 5.299L6.25178 7.12495H6.25078Z" fill="#4F566B"/>
</svg>
