<svg width="16" height="15" viewBox="0 0 16 15" fill="none" xmlns="http://www.w3.org/2000/svg">
<path d="M13.445 14.361C12.413 13.385 10.362 12.72 8 12.72C5.638 12.72 3.587 13.385 2.555 14.361C1.37743 13.267 0.55669 11.8437 0.199753 10.2765C-0.157184 8.70932 -0.0337699 7.07095 0.553912 5.57492C1.14159 4.07889 2.16629 2.79457 3.49446 1.88934C4.82263 0.98411 6.39268 0.499947 8 0.499947C9.60732 0.499947 11.1774 0.98411 12.5055 1.88934C13.8337 2.79457 14.8584 4.07889 15.4461 5.57492C16.0338 7.07095 16.1572 8.70932 15.8002 10.2765C15.4433 11.8437 14.6226 13.267 13.445 14.361ZM8 9.731C8.81607 9.731 9.59872 9.40682 10.1758 8.82977C10.7528 8.25272 11.077 7.47007 11.077 6.654C11.077 5.83793 10.7528 5.05528 10.1758 4.47823C9.59872 3.90119 8.81607 3.577 8 3.577C7.18393 3.577 6.40128 3.90119 5.82423 4.47823C5.24718 5.05528 4.923 5.83793 4.923 6.654C4.923 7.47007 5.24718 8.25272 5.82423 8.82977C6.40128 9.40682 7.18393 9.731 8 9.731Z" fill="#4F566B"/>
</svg>
