<svg width="16" height="16" viewBox="0 0 16 16" fill="none" xmlns="http://www.w3.org/2000/svg">
<path fill-rule="evenodd" clip-rule="evenodd" d="M8 16C5.87827 16 3.84344 15.1571 2.34315 13.6569C0.842855 12.1566 0 10.1217 0 8C0 5.87827 0.842855 3.84344 2.34315 2.34315C3.84344 0.842855 5.87827 0 8 0C10.1217 0 12.1566 0.842855 13.6569 2.34315C15.1571 3.84344 16 5.87827 16 8C16 10.1217 15.1571 12.1566 13.6569 13.6569C12.1566 15.1571 10.1217 16 8 16ZM7 8.089V8.5C7.00012 8.73179 7.08076 8.95634 7.22812 9.13525C7.37549 9.31416 7.58043 9.43633 7.8079 9.48085C8.03538 9.52538 8.27125 9.4895 8.4752 9.37936C8.67914 9.26921 8.83849 9.09164 8.926 8.877C9.51268 8.7178 10.047 8.40666 10.475 7.975C11.1314 7.31859 11.5002 6.42831 11.5002 5.5C11.5002 4.57169 11.1314 3.68141 10.475 3.025C9.81859 2.36859 8.9283 1.99982 8 1.99982C7.07169 1.99982 6.18141 2.36859 5.525 3.025C5.19595 3.34909 4.9356 3.73618 4.75948 4.16314C4.58337 4.5901 4.49512 5.04817 4.5 5.51C4.50265 5.77641 4.61103 6.03086 4.80128 6.21736C4.89549 6.30971 5.00696 6.3826 5.12933 6.43186C5.25171 6.48113 5.38259 6.50581 5.5145 6.5045C5.64641 6.50319 5.77678 6.4759 5.89814 6.42421C6.01951 6.37252 6.12951 6.29742 6.22186 6.20322C6.31421 6.10901 6.3871 5.99754 6.43636 5.87517C6.48563 5.75279 6.51031 5.62191 6.509 5.49C6.5067 5.29531 6.54419 5.1022 6.61916 4.92251C6.69413 4.74282 6.80501 4.58033 6.945 4.445C7.22603 4.1652 7.60643 4.00808 8.003 4.008C8.39188 4.01807 8.76146 4.17963 9.03295 4.45824C9.30444 4.73685 9.45638 5.11049 9.45638 5.4995C9.45638 5.88851 9.30444 6.26215 9.03295 6.54076C8.76146 6.81937 8.39188 6.98093 8.003 6.991C7.86285 6.99051 7.72415 7.01937 7.59582 7.07572C7.46749 7.13207 7.35239 7.21467 7.25791 7.31819C7.16343 7.42171 7.09167 7.54386 7.04725 7.67679C7.00283 7.80972 6.98674 7.95048 7 8.09V8.089ZM8 14C8.19698 14 8.39204 13.9612 8.57403 13.8858C8.75601 13.8104 8.92137 13.6999 9.06066 13.5607C9.19995 13.4214 9.31044 13.256 9.38582 13.074C9.4612 12.892 9.5 12.697 9.5 12.5C9.5 12.303 9.4612 12.108 9.38582 11.926C9.31044 11.744 9.19995 11.5786 9.06066 11.4393C8.92137 11.3001 8.75601 11.1896 8.57403 11.1142C8.39204 11.0388 8.19698 11 8 11C7.60218 11 7.22064 11.158 6.93934 11.4393C6.65804 11.7206 6.5 12.1022 6.5 12.5C6.5 12.8978 6.65804 13.2794 6.93934 13.5607C7.22064 13.842 7.60218 14 8 14Z" fill="#A3ACB9"/>
</svg>
