<svg width="14" height="15" viewBox="0 0 14 15" fill="none" xmlns="http://www.w3.org/2000/svg">
<path d="M8.5 14.299V10.894C8.49948 10.815 8.48334 10.7368 8.45252 10.664C8.42169 10.5912 8.37679 10.5252 8.32038 10.4698C8.26397 10.4144 8.19718 10.3708 8.12384 10.3413C8.05049 10.3118 7.97204 10.2971 7.893 10.298H6.107C5.94767 10.2972 5.79447 10.3594 5.68078 10.471C5.56709 10.5826 5.50211 10.7347 5.5 10.894V14.299H1.5C1.36877 14.2993 1.23878 14.2736 1.11747 14.2236C0.996154 14.1736 0.885899 14.1001 0.793014 14.0074C0.700129 13.9147 0.626438 13.8046 0.576159 13.6834C0.52588 13.5622 0.5 13.4322 0.5 13.301V6.296C0.5 5.915 0.718 5.567 1.06 5.4L7.02 0.5L12.916 5.389C13.0901 5.46823 13.2377 5.59587 13.3413 5.75669C13.4448 5.91751 13.4999 6.10473 13.5 6.296V13.301C13.5 13.4321 13.4742 13.562 13.4239 13.6831C13.3737 13.8043 13.3001 13.9144 13.2073 14.007C13.1146 14.0997 13.0044 14.1732 12.8832 14.2233C12.762 14.2734 12.6321 14.2991 12.501 14.299H8.5ZM7 8.099C7.17072 8.099 7.33976 8.06537 7.49749 8.00004C7.65521 7.93471 7.79852 7.83895 7.91924 7.71824C8.03996 7.59752 8.13571 7.45421 8.20104 7.29649C8.26637 7.13877 8.3 6.96972 8.3 6.799C8.3 6.62828 8.26637 6.45923 8.20104 6.30151C8.13571 6.14379 8.03996 6.00048 7.91924 5.87976C7.79852 5.75905 7.65521 5.66329 7.49749 5.59796C7.33976 5.53263 7.17072 5.499 7 5.499C6.65522 5.499 6.32456 5.63596 6.08076 5.87976C5.83696 6.12356 5.7 6.45422 5.7 6.799C5.7 7.14378 5.83696 7.47444 6.08076 7.71824C6.32456 7.96204 6.65522 8.099 7 8.099Z" fill="#A3ACB9"/>
</svg>
