<svg width="14" height="9" viewBox="0 0 14 9" fill="none" xmlns="http://www.w3.org/2000/svg">
<path d="M13 8.5H1C0.448 8.5 0 8.087 0 7.577V1.423C0 0.913 0.448 0.5 1 0.5H13C13.552 0.5 14 0.913 14 1.423V7.577C14 8.087 13.552 8.5 13 8.5ZM7.006 2.5C6.74296 2.49961 6.48242 2.55103 6.23926 2.65132C5.99609 2.75162 5.77506 2.89883 5.58879 3.08454C5.40251 3.27026 5.25464 3.49085 5.15362 3.73371C5.05259 3.97658 5.00039 4.23696 5 4.5C4.99961 4.76304 5.05103 5.02358 5.15132 5.26674C5.25162 5.50991 5.39883 5.73094 5.58454 5.91721C5.77026 6.10349 5.99085 6.25136 6.23371 6.35238C6.47658 6.45341 6.73696 6.50561 7 6.506C7.53123 6.5068 8.04102 6.29653 8.41721 5.92146C8.79341 5.54638 9.0052 5.03723 9.006 4.506C9.00679 3.97477 8.79653 3.46498 8.42146 3.08879C8.04638 2.71259 7.53723 2.5008 7.006 2.5Z" fill="#5469D4"/>
</svg>
