<svg width="14" height="15" viewBox="0 0 14 15" fill="none" xmlns="http://www.w3.org/2000/svg">
<path d="M7.00002 6.62863V14.8756C7.00002 14.8756 6.45402 14.8976 6.28502 14.8246L0.533024 12.0706C0.372103 11.9919 0.236696 11.8693 0.142398 11.717C0.0481001 11.5646 -0.00125249 11.3888 2.41549e-05 11.2096V3.91463C-0.00118223 3.73562 0.0482105 3.55992 0.142511 3.40777C0.236811 3.25561 0.372182 3.1332 0.533024 3.05463L6.63702 0.172627C6.75664 0.114952 6.88773 0.0849991 7.02052 0.0849991C7.15332 0.0849991 7.28441 0.114952 7.40402 0.172627L9.15702 1.01063L2.24402 4.31763C2.16632 4.35675 2.10108 4.4168 2.05567 4.491C2.01026 4.56521 1.98649 4.65063 1.98702 4.73763L1.99402 6.76763L4.00202 7.79963V5.70563C4.00149 5.61901 4.02505 5.53395 4.07009 5.45995C4.11512 5.38596 4.17984 5.32595 4.25702 5.28663L11.163 1.97363L13.154 2.92663C13.342 3.01963 13.504 3.19463 13.66 3.35363L7.00002 6.62863Z" fill="#A3ACB9"/>
</svg>
