<svg width="14" height="11" viewBox="0 0 14 11" fill="none" xmlns="http://www.w3.org/2000/svg">
<path d="M6 7.5H8V10.5H6V7.5ZM9 4.5H11V10.5H9V4.5ZM12 0.5H14V10.5H12V0.5ZM0 9.5C0 9.23478 0.105357 8.98043 0.292893 8.79289C0.48043 8.60536 0.734784 8.5 1 8.5H2V10.5H1C0.734784 10.5 0.48043 10.3946 0.292893 10.2071C0.105357 10.0196 0 9.76522 0 9.5ZM0 5.5C0 5.23478 0.105357 4.98043 0.292893 4.79289C0.48043 4.60536 0.734784 4.5 1 4.5H2V6.5H1C0.734784 6.5 0.48043 6.39464 0.292893 6.20711C0.105357 6.01957 0 5.76522 0 5.5ZM0 1.5C0 1.23478 0.105357 0.98043 0.292893 0.792893C0.48043 0.605357 0.734784 0.5 1 0.5H2V2.5H1C0.734784 2.5 0.48043 2.39464 0.292893 2.20711C0.105357 2.01957 0 1.76522 0 1.5Z" fill="#4F566B"/>
</svg>
