<svg width="16" height="9" viewBox="0 0 16 9" fill="none" xmlns="http://www.w3.org/2000/svg">
<path d="M8.05247 0.503732C7.99821 0.496296 7.943 0.499997 7.89021 0.514612C7.83743 0.529226 7.78818 0.554446 7.74547 0.588732L0.602469 6.37273C0.560504 6.40579 0.525586 6.44692 0.499776 6.4937C0.473966 6.54047 0.457787 6.59194 0.452195 6.64507C0.446602 6.6982 0.451709 6.75191 0.467214 6.80304C0.482719 6.85416 0.508307 6.90166 0.542469 6.94273L1.29247 7.86773C1.43047 8.03773 1.68747 8.06773 1.86047 7.92773L8.05247 2.91273L14.2455 7.92773C14.4185 8.06773 14.6755 8.03773 14.8155 7.86773L15.5635 6.94173C15.5976 6.90066 15.6232 6.85316 15.6387 6.80204C15.6542 6.75091 15.6593 6.6972 15.6537 6.64407C15.6482 6.59094 15.632 6.53947 15.6062 6.4927C15.5804 6.44592 15.5454 6.40479 15.5035 6.37173L8.36047 0.589732C8.31764 0.555316 8.26822 0.530022 8.21525 0.515404C8.16229 0.500787 8.10689 0.497155 8.05247 0.504732V0.503732Z" fill="#4F566B"/>
</svg>
